HIERARCHY
ROOT hip
{
  OFFSET 0 0 0
  CHANNELS 6 Xposition Yposition Zposition Zrotation Yrotation Xrotation
  JOINT abdomen
  {
    OFFSET 0 20.6881 -0.73152
    CHANNELS 3 Zrotation Xrotation Yrotation
    JOINT chest
    {
      OFFSET 0 11.7043 -0.48768
      CHANNELS 3 Zrotation Xrotation Yrotation
      JOINT neck
      {
        OFFSET 0 22.1894 -2.19456
        CHANNELS 3 Zrotation Xrotation Yrotation
        JOINT head
        {
          OFFSET -0.24384 7.07133 1.2192
          CHANNELS 3 Zrotation Xrotation Yrotation
          JOINT leftEye
          {
            OFFSET 4.14528 8.04674 8.04672
            CHANNELS 3 Zrotation Xrotation Yrotation
            End Site
            {
              OFFSET 1 0 0
            }
          }
          JOINT rightEye
          {
            OFFSET -3.6576 8.04674 8.04672
            CHANNELS 3 Zrotation Xrotation Yrotation
            End Site
            {
              OFFSET 1 0 0
            }
          }
        }
      }
      JOINT rCollar
      {
        OFFSET -2.68224 19.2634 -4.8768
        CHANNELS 3 Zrotation Xrotation Yrotation
        JOINT rShldr
        {
          OFFSET -8.77824 -1.95073 1.46304
          CHANNELS 3 Zrotation Xrotation Yrotation
          JOINT rForeArm
          {
            OFFSET -28.1742 -1.7115 0.48768
            CHANNELS 3 Zrotation Xrotation Yrotation
            JOINT rHand
            {
              OFFSET -22.5879 0.773209 7.07136
              CHANNELS 3 Zrotation Xrotation Yrotation
              JOINT rThumb1
              {
                OFFSET -1.2192 -0.487915 3.41376
                CHANNELS 3 Zrotation Xrotation Yrotation
                JOINT rThumb2
                {
                  OFFSET -3.37035 -0.52449 3.41376
                  CHANNELS 3 Zrotation Xrotation Yrotation
                  End Site
                  {
                    OFFSET -1.78271 -1.18214 1.43049
                  }
                }
              }
              JOINT rIndex1
              {
                OFFSET -7.75947 0.938293 5.60832
                CHANNELS 3 Zrotation Xrotation Yrotation
                JOINT rIndex2
                {
                  OFFSET -2.54057 -0.884171 1.56538
                  CHANNELS 3 Zrotation Xrotation Yrotation
                  End Site
                  {
                    OFFSET -1.62519 -0.234802 1.16502
                  }
                }
              }
              JOINT rMid1
              {
                OFFSET -8.24714 1.18213 3.41376
                CHANNELS 3 Zrotation Xrotation Yrotation
                JOINT rMid2
                {
                  OFFSET -3.10165 -0.590103 1.0647
                  CHANNELS 3 Zrotation Xrotation Yrotation
                  End Site
                  {
                    OFFSET -2.48547 -0.328903 0.83742
                  }
                }
              }
              JOINT rRing1
              {
                OFFSET -8.82822 0.546677 1.51678
                CHANNELS 3 Zrotation Xrotation Yrotation
                JOINT rRing2
                {
                  OFFSET -2.60934 -0.819778 -0.0198488
                  CHANNELS 3 Zrotation Xrotation Yrotation
                  End Site
                  {
                    OFFSET -2.33842 -0.294052 0.168128
                  }
                }
              }
              JOINT rPinky1
              {
                OFFSET -8.27202 -0.0477905 -0.4584
                CHANNELS 3 Zrotation Xrotation Yrotation
                JOINT rPinky2
                {
                  OFFSET -1.82734 -0.647385 -0.700984
                  CHANNELS 3 Zrotation Xrotation Yrotation
                  End Site
                  {
                    OFFSET -1.69225 -0.51767 -0.607171
                  }
                }
              }
            }
          }
        }
      }
      JOINT lCollar
      {
        OFFSET 2.68224 19.2634 -4.8768
        CHANNELS 3 Zrotation Xrotation Yrotation
        JOINT lShldr
        {
          OFFSET 8.77824 -1.95073 1.46304
          CHANNELS 3 Zrotation Xrotation Yrotation
          JOINT lForeArm
          {
            OFFSET 28.1742 -1.7115 0.48768
            CHANNELS 3 Zrotation Xrotation Yrotation
            JOINT lHand
            {
              OFFSET 22.5879 0.773209 7.07136
              CHANNELS 3 Zrotation Xrotation Yrotation
              JOINT lThumb1
              {
                OFFSET 1.2192 -0.487915 3.41376
                CHANNELS 3 Zrotation Xrotation Yrotation
                JOINT lThumb2
                {
                  OFFSET 3.37035 -0.52449 3.41376
                  CHANNELS 3 Zrotation Xrotation Yrotation
                  End Site
                  {
                    OFFSET 1.78271 -1.18214 1.43049
                  }
                }
              }
              JOINT lIndex1
              {
                OFFSET 7.75947 0.938293 5.60832
                CHANNELS 3 Zrotation Xrotation Yrotation
                JOINT lIndex2
                {
                  OFFSET 2.54057 -0.884171 1.56538
                  CHANNELS 3 Zrotation Xrotation Yrotation
                  End Site
                  {
                    OFFSET 1.62519 -0.234802 1.16502
                  }
                }
              }
              JOINT lMid1
              {
                OFFSET 8.24714 1.18213 3.41376
                CHANNELS 3 Zrotation Xrotation Yrotation
                JOINT lMid2
                {
                  OFFSET 3.10165 -0.590103 1.0647
                  CHANNELS 3 Zrotation Xrotation Yrotation
                  End Site
                  {
                    OFFSET 2.48547 -0.328903 0.83742
                  }
                }
              }
              JOINT lRing1
              {
                OFFSET 8.82822 0.546677 1.51678
                CHANNELS 3 Zrotation Xrotation Yrotation
                JOINT lRing2
                {
                  OFFSET 2.60934 -0.819778 -0.0198488
                  CHANNELS 3 Zrotation Xrotation Yrotation
                  End Site
                  {
                    OFFSET 2.33842 -0.294052 0.168128
                  }
                }
              }
              JOINT lPinky1
              {
                OFFSET 8.27202 -0.0477905 -0.4584
                CHANNELS 3 Zrotation Xrotation Yrotation
                JOINT lPinky2
                {
                  OFFSET 1.82734 -0.647385 -0.700984
                  CHANNELS 3 Zrotation Xrotation Yrotation
                  End Site
                  {
                    OFFSET 1.69225 -0.51767 -0.607171
                  }
                }
              }
            }
          }
        }
      }
    }
  }
  JOINT rButtock
  {
    OFFSET -8.77824 4.35084 1.2192
    CHANNELS 3 Zrotation Xrotation Yrotation
    JOINT rThigh
    {
      OFFSET 0 -1.70687 -2.19456
      CHANNELS 3 Zrotation Xrotation Yrotation
      JOINT rShin
      {
        OFFSET 0 -36.8199 0.73152
        CHANNELS 3 Zrotation Xrotation Yrotation
        JOINT rFoot
        {
          OFFSET 0.73152 -45.1104 -5.12064
          CHANNELS 3 Zrotation Xrotation Yrotation
          End Site
          {
            OFFSET -1.1221 -3.69964 12.103
          }
        }
      }
    }
  }
  JOINT lButtock
  {
    OFFSET 8.77824 4.35084 1.2192
    CHANNELS 3 Zrotation Xrotation Yrotation
    JOINT lThigh
    {
      OFFSET 0 -1.70687 -2.19456
      CHANNELS 3 Zrotation Xrotation Yrotation
      JOINT lShin
      {
        OFFSET 0 -36.8199 0.73152
        CHANNELS 3 Zrotation Xrotation Yrotation
        JOINT lFoot
        {
          OFFSET -0.73152 -45.1104 -5.12064
          CHANNELS 3 Zrotation Xrotation Yrotation
          End Site
          {
            OFFSET 1.1221 -3.69964 12.103
          }
        }
      }
    }
  }
}
MOTION
Frames:	4
Frame Time:	0.00833333
-42.1501 127.829 3.63857 344.463 -83.7504 -162.61 -3.0487 -11.4192 -1.37422 -3.48076 -3.15591 -0.897617 -4.38518 -2.39292 -1.78034 -2.69874 -61.2974 -5.85135 -0.0 0.0 0.0 -0.0 0.0 0.0 -6.75367e-15 -1.51205e-12 -2.54259e-13 5.46344 -70.0609 57.6963 -18.9426 -11.7633 36.0865 -0.0899754 -8.55483 -1.21096 -5.79721e-09 -7.93401e-10 -9.89872e-11 -1.00174e-08 -1.37206e-09 -2.00668e-10 -5.7972e-09 -7.93399e-10 -9.90031e-11 7.73091 5.47488 0.417314 -5.79721e-09 -7.93402e-10 -9.89893e-11 2.90554 0.965183 0.102902 -5.7972e-09 -7.93402e-10 -9.89919e-11 10.2786 0.731801 0.0259123 -5.79721e-09 -7.934e-10 -9.89859e-11 2.22167 -0.733487 -0.20892 -6.98127e-15 -1.51203e-12 -2.54626e-13 0.587746 -72.5681 -57.3441 17.2653 -9.95066 -32.3134 0.0448007 -5.8472 0.824828 6.14637e-09 1.27376e-09 -6.28365e-10 1.06316e-08 2.21079e-09 -1.07597e-09 6.14637e-09 1.27376e-09 -6.28361e-10 -7.73091 5.47488 -0.417314 6.14637e-09 1.27376e-09 -6.28369e-10 -2.90554 0.965183 -0.102902 6.14636e-09 1.27376e-09 -6.28364e-10 -10.2786 0.731801 -0.0259123 6.14637e-09 1.27376e-09 -6.28375e-10 -2.22167 -0.733487 0.20892 -2.03217e-16 0.0 -3.88251e-19 -14.4207 27.4579 -0.635986 -0.35957 36.0068 0.182428 -3.65993 50.839 4.75935 2.03217e-16 0.0 3.88251e-19 12.8189 -40.367 14.3185 0.877543 49.8289 0.492431 -0.0990616 -3.03219 1.55568
-42.3193 127.086 3.60872 347.043 -83.6319 -164.867 -2.30362 -11.6218 -1.10189 -3.53923 -2.96416 -0.85357 -4.45926 -2.71677 -1.74427 -2.58033 -61.1656 -5.64675 -0.0 0.0 0.0 -0.0 0.0 0.0 3.16829e-16 -1.26816e-12 -2.04935e-13 11.8589 -72.4747 64.9038 -18.0955 -10.814 34.1403 -0.0683226 -7.28139 -1.02839 -5.21247e-09 -9.16828e-10 -3.20981e-10 -9.00769e-09 -1.5841e-09 -5.74107e-10 -5.21247e-09 -9.16826e-10 -3.20996e-10 7.73091 5.47488 0.417314 -5.21247e-09 -9.16828e-10 -3.20981e-10 2.90554 0.965183 0.102902 -5.21247e-09 -9.16828e-10 -3.20983e-10 10.2786 0.731801 0.0259123 -5.21247e-09 -9.16826e-10 -3.20978e-10 2.22167 -0.733487 -0.20892 5.27261e-17 -1.26815e-12 -2.05304e-13 3.39296 -73.6477 -55.98 16.3019 -9.01775 -30.1973 0.0463998 -5.78391 0.81595 5.43304e-09 1.11801e-09 -2.87186e-10 9.39802e-09 1.94037e-09 -4.89237e-10 5.43304e-09 1.11801e-09 -2.8718e-10 -7.73091 5.47488 -0.417314 5.43304e-09 1.11801e-09 -2.87186e-10 -2.90554 0.965183 -0.102902 5.43303e-09 1.11801e-09 -2.87183e-10 -10.2786 0.731801 -0.0259123 5.43304e-09 1.11801e-09 -2.87192e-10 -2.22167 -0.733487 0.20892 -2.03217e-16 0.0 -3.88251e-19 -14.8301 29.4964 -0.0735245 -0.346522 34.8535 0.124583 -3.05494 51.8707 3.80725 2.03217e-16 0.0 3.88251e-19 13.1894 -41.0814 13.4806 0.781447 46.9116 0.699817 -0.00988038 -1.88287 2.58417
-42.4918 126.277 3.55903 349.153 -83.4432 -166.679 -1.61587 -11.8596 -0.803921 -3.60678 -2.7583 -0.799853 -4.5262 -3.06245 -1.71258 -2.40503 -60.9574 -5.41185 -0.0 0.0 0.0 -0.0 0.0 0.0 9.46859e-15 -1.00042e-12 -1.54821e-13 20.5853 -74.4833 74.5689 -17.0916 -9.74814 31.9709 -0.0453723 -5.7381 -0.808826 -4.09148e-09 -1.08245e-09 -4.89271e-10 -7.07098e-09 -1.86972e-09 -8.54871e-10 -4.09148e-09 -1.08245e-09 -4.89285e-10 7.73091 5.47488 0.417314 -4.09148e-09 -1.08245e-09 -4.89269e-10 2.90554 0.965183 0.102902 -4.09148e-09 -1.08245e-09 -4.89271e-10 10.2786 0.731801 0.0259123 -4.09148e-09 -1.08245e-09 -4.89267e-10 2.22167 -0.733487 -0.20892 9.18164e-15 -1.00041e-12 -1.55182e-13 5.47079 -74.5884 -55.3246 15.2566 -8.04534 -28.0415 0.0406584 -5.39207 0.760301 4.1688e-09 1.03217e-09 3.29546e-11 7.21161e-09 1.79029e-09 6.15106e-11 4.1688e-09 1.03217e-09 3.29625e-11 -7.73091 5.47488 -0.417314 4.1688e-09 1.03217e-09 3.29586e-11 -2.90554 0.965183 -0.102902 4.1688e-09 1.03217e-09 3.29593e-11 -10.2786 0.731801 -0.0259123 4.16881e-09 1.03217e-09 3.29522e-11 -2.22167 -0.733487 0.20892 -2.03217e-16 0.0 -3.88251e-19 -15.2545 31.4009 0.650597 -0.33631 33.8029 0.072413 -2.46723 52.9127 2.91185 2.03217e-16 0.0 3.88251e-19 13.4967 -41.7234 12.4462 0.700462 44.0442 0.885011 0.0683691 -0.791189 3.82849
-42.6698 125.396 3.50337 350.168 -83.189 -167.441 -1.10185 -12.1394 -0.476225 -3.68193 -2.53889 -0.732132 -4.61658 -3.42032 -1.68871 -2.19716 -60.6118 -5.14985 -0.0 0.0 0.0 -0.0 0.0 0.0 1.04806e-14 -8.23963e-13 -1.41336e-13 30.171 -75.7928 85.1026 -16.0361 -8.72076 29.7489 -0.0190464 -3.93685 -0.554169 -2.55587e-09 -1.35771e-09 -4.8922e-10 -4.41665e-09 -2.34682e-09 -8.51571e-10 -2.55587e-09 -1.35771e-09 -4.89233e-10 7.73091 5.47488 0.417314 -2.55587e-09 -1.35771e-09 -4.89217e-10 2.90554 0.965183 0.102902 -2.55586e-09 -1.35771e-09 -4.89219e-10 10.2786 0.731801 0.0259123 -2.55587e-09 -1.35771e-09 -4.89214e-10 2.22167 -0.733487 -0.20892 1.01937e-14 -8.23963e-13 -1.41684e-13 4.77567 -75.4812 -57.1338 14.2853 -7.18699 -26.13 0.0260954 -4.60643 0.648804 2.51275e-09 1.26237e-09 1.13377e-10 4.34765e-09 2.18669e-09 2.00348e-10 2.51275e-09 1.26237e-09 1.13387e-10 -7.73091 5.47488 -0.417314 2.51275e-09 1.26237e-09 1.13384e-10 -2.90554 0.965183 -0.102902 2.51275e-09 1.26237e-09 1.13383e-10 -10.2786 0.731801 -0.0259123 2.51276e-09 1.26237e-09 1.13377e-10 -2.22167 -0.733487 0.20892 -2.03217e-16 0.0 -3.88251e-19 -15.8004 33.1076 1.46292 -0.330586 33.0211 0.0318647 -1.9802 53.9081 2.18791 2.03217e-16 0.0 3.88251e-19 13.6041 -42.2965 11.1024 0.638278 41.2955 1.04535 0.138786 0.0863712 5.31939
